# xmcd
#
# Track frame offsets:
# 150
# 14019
# 23646
# 35843
# 47410
# 58253
# 68567
# 80243
# 92469
# 102804
#
# Disc length: 1506 seconds
#
#
# Revision: 0
# Processed by: cddbd v1.4PL0 Copyright (c) Steve Scherf et al.
# Submitted via: FreeRIP 2.00 
#
DISCID=7c05e00a
DTITLE=Ira and Charles Louvin - Ira and Charles Louvin
DYEAR=1900
DGENRE=Country
TTITLE0=Too Late
TTITLE1=I Don't Believe You Met My Baby
TTITLE2=Nobody's Darlin' But Mine
TTITLE3=Where Will You Build
TTITLE4=Tennessee Waltz
TTITLE5=I Cried After You Left
TTITLE6=Hoping That You're Hoping
TTITLE7=Take Me Back Into Your Heart
TTITLE8=Here Today And Gone Tomorrow
TTITLE9=In The Middle Of Nowhere
EXTD=Pickwick - JM-6036
EXTT0=
EXTT1=
EXTT2=
EXTT3=
EXTT4=
EXTT5=
EXTT6=
EXTT7=
EXTT8=
EXTT9=
PLAYORDER=
